<?xml version="1.0" encoding="utf-8"?>
<!-- Generator: Adobe Illustrator 28.2.0, SVG Export Plug-In . SVG Version: 6.00 Build 0)  -->
<svg version="1.1" id="Capa_1" xmlns="http://www.w3.org/2000/svg" xmlns:xlink="http://www.w3.org/1999/xlink" x="0px" y="0px"
	 viewBox="0 0 48 48" style="enable-background:new 0 0 48 48;" xml:space="preserve">
<style type="text/css">
	.st0{fill-rule:evenodd;clip-rule:evenodd;fill:#303030;}
	.st1{fill-rule:evenodd;clip-rule:evenodd;fill:#FFFFFF;}
</style>
<g>
	<path class="st0" d="M43.09,1.08H4.83C2.71,1.08,1,2.8,1,4.91v38.26C1,45.29,2.71,47,4.83,47h38.26c2.11,0,3.83-1.71,3.83-3.83
		V4.91C46.92,2.8,45.2,1.08,43.09,1.08z"/>
	<path class="st1" d="M27.56,15.42c0.81-0.03,1.61-0.01,2.42-0.01c0.1,0,0.2,0,0.33,0v-4.19c-0.43-0.04-0.88-0.11-1.33-0.13
		c-0.83-0.04-1.66-0.08-2.48-0.06c-1.26,0.03-2.46,0.33-3.51,1.08c-1.2,0.86-1.86,2.07-2.11,3.5c-0.1,0.59-0.13,1.2-0.15,1.8
		c-0.02,0.94,0,1.88,0,2.82v0.35h-4.01v4.69h3.99v11.78h4.88V25.3h3.98c0.2-1.56,0.4-3.1,0.61-4.71c-0.32,0-0.61,0-0.89,0
		c-1.13,0-3.73,0-3.73,0s0.01-2.32,0.04-3.33C25.64,15.88,26.46,15.46,27.56,15.42z"/>
</g>
</svg>
