<?xml version="1.0" encoding="utf-8"?>
<!-- Generator: Adobe Illustrator 28.2.0, SVG Export Plug-In . SVG Version: 6.00 Build 0)  -->
<svg version="1.1" id="Capa_1" xmlns="http://www.w3.org/2000/svg" xmlns:xlink="http://www.w3.org/1999/xlink" x="0px" y="0px"
	 viewBox="0 0 48 48" style="enable-background:new 0 0 48 48;" xml:space="preserve">
<style type="text/css">
	.st0{fill-rule:evenodd;clip-rule:evenodd;fill:#303030;}
	.st1{fill-rule:evenodd;clip-rule:evenodd;fill:#FFFFFF;}
	.st2{fill:#FFFFFF;}
</style>
<g>
	<path class="st0" d="M43.09,1.08H4.83C2.71,1.08,1,2.8,1,4.91v38.26C1,45.29,2.71,47,4.83,47h38.26c2.11,0,3.83-1.71,3.83-3.83
		V4.91C46.92,2.8,45.2,1.08,43.09,1.08z"/>
	<path class="st1" d="M27.56,15.42c0.81-0.03,1.61-0.01,2.42-0.01c0.1,0,0.2,0,0.33,0v-4.19c-0.43-0.04-0.88-0.11-1.33-0.13
		c-0.83-0.04-1.66-0.08-2.48-0.06c-1.26,0.03-2.46,0.33-3.51,1.08c-1.2,0.86-1.86,2.07-2.11,3.5c-0.1,0.59-0.13,1.2-0.15,1.8
		c-0.02,0.94,0,1.88,0,2.82v0.35h-4.01v4.69h3.99v11.78h4.88V25.3h3.98c0.2-1.56,0.4-3.1,0.61-4.71c-0.32,0-0.61,0-0.89,0
		c-1.13,0-3.73,0-3.73,0s0.01-2.32,0.04-3.33C25.64,15.88,26.46,15.46,27.56,15.42z"/>
</g>
<g>
	<path class="st0" d="M43.17,1H4.83C2.72,1,1,2.72,1,4.83v38.33C1,45.28,2.72,47,4.83,47h38.33c2.12,0,3.83-1.72,3.83-3.83V4.83
		C47,2.72,45.28,1,43.17,1z"/>
	<g>
		<path class="st2" d="M35.25,18.05c-0.15-1.5-0.73-2.84-1.85-3.9c-1.18-1.12-2.62-1.62-4.19-1.7c-2.69-0.15-9.07-0.24-11.31,0.13
			c-2.56,0.42-4.24,1.91-4.95,4.44c-0.54,1.95-0.44,10.92-0.12,12.84c0.43,2.63,1.99,4.32,4.59,4.99c1.8,0.47,10.67,0.41,12.66,0.08
			c2.63-0.43,4.33-1.97,5.01-4.57C35.62,28.35,35.43,19.85,35.25,18.05z M33.14,29.47c-0.31,2-1.63,3.24-3.64,3.45
			c-1.84,0.2-10.08,0.31-11.79-0.16c-1.64-0.46-2.57-1.58-2.84-3.23c-0.26-1.57-0.32-9.44,0-11.54c0.3-1.98,1.63-3.22,3.62-3.44
			c2.03-0.23,9.32-0.25,11.26,0.05c1.99,0.31,3.23,1.63,3.45,3.65C33.4,20.12,33.45,27.46,33.14,29.47z M24,17.88
			c-3.24,0-5.87,2.62-5.87,5.86s2.62,5.87,5.86,5.87s5.87-2.62,5.87-5.86S27.24,17.88,24,17.88z M23.96,27.53
			c-2.09-0.02-3.78-1.73-3.76-3.83c0.02-2.09,1.73-3.78,3.83-3.76c2.09,0.02,3.78,1.73,3.76,3.83
			C27.77,25.87,26.06,27.55,23.96,27.53z M31.47,17.66c0,0.76-0.62,1.37-1.38,1.37c-0.76,0-1.37-0.62-1.37-1.38
			c0-0.76,0.62-1.37,1.38-1.37C30.86,16.28,31.47,16.9,31.47,17.66z"/>
		<path class="st2" d="M35.25,18.05c-0.15-1.5-0.73-2.84-1.85-3.9c-1.18-1.12-2.62-1.62-4.19-1.7c-2.69-0.15-9.07-0.24-11.31,0.13
			c-2.56,0.42-4.24,1.91-4.95,4.44c-0.54,1.95-0.44,10.92-0.12,12.84c0.43,2.63,1.99,4.32,4.59,4.99c1.8,0.47,10.67,0.41,12.66,0.08
			c2.63-0.43,4.33-1.97,5.01-4.57C35.62,28.35,35.43,19.85,35.25,18.05z M33.14,29.47c-0.31,2-1.63,3.24-3.64,3.45
			c-1.84,0.2-10.08,0.31-11.79-0.16c-1.64-0.46-2.57-1.58-2.84-3.23c-0.26-1.57-0.32-9.44,0-11.54c0.3-1.98,1.63-3.22,3.62-3.44
			c2.03-0.23,9.32-0.25,11.26,0.05c1.99,0.31,3.23,1.63,3.45,3.65C33.4,20.12,33.45,27.46,33.14,29.47z M24,17.88
			c-3.24,0-5.87,2.62-5.87,5.86s2.62,5.87,5.86,5.87s5.87-2.62,5.87-5.86S27.24,17.88,24,17.88z M23.96,27.53
			c-2.09-0.02-3.78-1.73-3.76-3.83c0.02-2.09,1.73-3.78,3.83-3.76c2.09,0.02,3.78,1.73,3.76,3.83
			C27.77,25.87,26.06,27.55,23.96,27.53z M31.47,17.66c0,0.76-0.62,1.37-1.38,1.37c-0.76,0-1.37-0.62-1.37-1.38
			c0-0.76,0.62-1.37,1.38-1.37C30.86,16.28,31.47,16.9,31.47,17.66z"/>
	</g>
</g>
</svg>
