<?xml version="1.0" encoding="utf-8"?>
<!-- Generator: Adobe Illustrator 28.2.0, SVG Export Plug-In . SVG Version: 6.00 Build 0)  -->
<svg version="1.1" id="Capa_1" xmlns="http://www.w3.org/2000/svg" xmlns:xlink="http://www.w3.org/1999/xlink" x="0px" y="0px"
	 viewBox="0 0 144 72" style="enable-background:new 0 0 144 72;" xml:space="preserve">
<style type="text/css">
	.st0{fill:#10B0BB;}
	.st1{fill:#3E4040;}
	.st2{fill:#313030;}
	.st3{fill:#74160A;}
	.st4{fill:#A8A7A1;}
	.st5{fill:#E95433;}
	.st6{fill:#1AEBF2;}
	.st7{fill:#878888;}
	.st8{fill:#FFFCE6;}
	.st9{fill:#D0CEC0;}
	.st10{fill:#686A6A;}
	.st11{fill:#C4C4C3;}
	.st12{fill:#1D1D1B;}
	.st13{fill:#1BD9DB;}
	.st14{fill:#1DACB0;}
	.st15{fill:#179AA1;}
	.st16{fill:#0A6469;}
	.st17{fill:#14EBF7;}
	.st18{fill:#222222;}
	.st19{fill:#15C1D0;}
	.st20{fill:#FFFFFF;}
	.st21{fill:none;stroke:#E95433;stroke-miterlimit:10;}
</style>
<g>
	<g>
		<path class="st0" d="M38.95,35.26c0,0.65-0.19,1.34-2.47,1.34h-2.61c-2.28,0-2.35-0.78-2.35-1.42l-1.78-12.53
			c0-0.65,1.85-1.17,4.12-1.17h2.61c2.28,0,4.12,0.52,4.12,1.17L38.95,35.26z"/>
		<g>
			<g>
				<g>
					<path class="st1" d="M47.84,20.06c0,0-4.42,1.18-6.2,0.93c-1.78-0.25-2.92-2.92-6.51-2.69v7.99c0,0,4.45,0.29,7.31-1.44
						c2.85-1.73,4.37-3.02,5.65-3.24L47.84,20.06z"/>
					<path class="st0" d="M47.84,20.06c0,0-4.42,1.18-6.2,0.93c-1.78-0.25-2.92-2.92-6.51-2.69v7.99c0,0,4.45,0.29,7.31-1.44
						c2.85-1.73,4.37-3.02,5.65-3.24L47.84,20.06z"/>
				</g>
				<g>
					<path class="st2" d="M53.6,19.55c0.08,0.27-0.14,0.57-0.5,0.67l-4.53,1.31c-0.35,0.1-0.7-0.03-0.78-0.3l-0.16-0.56
						c-0.08-0.27,0.14-0.57,0.5-0.67l4.53-1.31c0.35-0.1,0.7,0.03,0.78,0.3L53.6,19.55z"/>
					
						<rect x="47.7" y="19.59" transform="matrix(0.9604 -0.2785 0.2785 0.9604 -3.9158 14.1881)" class="st2" width="0.56" height="2.57"/>
					
						<rect x="52.97" y="18.35" transform="matrix(0.9605 -0.2784 0.2784 0.9605 -3.2792 15.5918)" class="st2" width="0.56" height="1.97"/>
				</g>
			</g>
			<g>
				<g>
					<path class="st1" d="M22.28,20.06c0,0,4.42,1.18,6.2,0.93c1.78-0.25,2.92-2.92,6.51-2.69v7.99c0,0-4.45,0.29-7.31-1.44
						c-2.85-1.73-4.37-3.02-5.65-3.24L22.28,20.06z"/>
					<path class="st0" d="M22.28,20.06c0,0,4.42,1.18,6.2,0.93c1.78-0.25,2.92-2.92,6.51-2.69v7.99c0,0-4.45,0.29-7.31-1.44
						c-2.85-1.73-4.37-3.02-5.65-3.24L22.28,20.06z"/>
				</g>
				<g>
					<path class="st2" d="M16.52,19.55c-0.08,0.27,0.14,0.57,0.5,0.67l4.53,1.31c0.35,0.1,0.7-0.03,0.78-0.3l0.16-0.56
						c0.08-0.27-0.14-0.57-0.5-0.67l-4.53-1.31c-0.35-0.1-0.7,0.03-0.78,0.3L16.52,19.55z"/>
					
						<rect x="20.85" y="20.6" transform="matrix(0.2785 -0.9604 0.9604 0.2785 -4.0781 36.3272)" class="st2" width="2.57" height="0.56"/>
					
						<rect x="15.89" y="19.06" transform="matrix(0.2785 -0.9605 0.9605 0.2785 -6.3989 30.1618)" class="st2" width="1.97" height="0.56"/>
				</g>
			</g>
		</g>
		<g>
			<path class="st0" d="M37.8,45.03c0,1.09-0.93,1.97-2.08,1.97h-1.32c-1.15,0-2.08-0.88-2.08-1.97V23.45
				c0-1.09,0.93-1.97,2.08-1.97h1.32c1.15,0,2.08,0.88,2.08,1.97V45.03z"/>
		</g>
		<g>
			<path class="st3" d="M37.8,38.3V23.45c0-1.09-0.93-1.97-2.08-1.97h-1.32c-1.15,0-2.08,0.88-2.08,1.97v14.84
				C33.29,38.99,36.4,39.27,37.8,38.3z"/>
		</g>
		<path class="st0" d="M40.68,37.23V23.45c0-1.09-1.9-1.97-4.24-1.97h-2.69c-2.34,0-4.24,0.88-4.24,1.97v13.77H40.68z"/>
		<g>
			<g>
				<path class="st4" d="M29.66,23.64c0,1.1-0.89,2-2,2s-2-0.89-2-2c0-1.1,0.89-2,2-2S29.66,22.54,29.66,23.64z"/>
				
					<ellipse transform="matrix(0.1602 -0.9871 0.9871 0.1602 -0.2586 47.2908)" class="st5" cx="27.66" cy="23.8" rx="1.85" ry="1.85"/>
				<path class="st5" d="M28.72,25.31c0.48-0.33,0.79-0.89,0.79-1.51c0-0.77-0.47-1.43-1.15-1.71c-0.24,0.48-0.49,1.23-0.73,1.71
					C28.03,24.37,28.37,24.7,28.72,25.31z"/>
			</g>
			<g>
				<path class="st4" d="M44.68,23.64c0,1.1-0.89,2-2,2c-1.1,0-2-0.89-2-2c0-1.1,0.89-2,2-2C43.78,21.65,44.68,22.54,44.68,23.64z"
					/>
				<path class="st5" d="M44.52,23.8c0,1.02-0.83,1.85-1.85,1.85c-1.02,0-1.85-0.83-1.85-1.85c0-1.02,0.83-1.85,1.85-1.85
					C43.7,21.95,44.52,22.78,44.52,23.8z"/>
				<path class="st5" d="M43.73,25.31c0.48-0.33,0.79-0.89,0.79-1.51c0-0.77-0.47-1.43-1.15-1.71c-0.24,0.48-0.49,1.23-0.73,1.71
					C43.05,24.37,43.39,24.7,43.73,25.31z"/>
			</g>
		</g>
		<path class="st6" d="M37.8,36.59c0,0.7-0.93,1.27-2.08,1.27h-1.32c-1.15,0-2.08-0.57-2.08-1.27V22.75c0-0.7,0.93-1.27,2.08-1.27
			h1.32c1.15,0,2.08,0.57,2.08,1.27V36.59z"/>
		<ellipse transform="matrix(0.1602 -0.9871 0.9871 0.1602 7.5289 53.4414)" class="st7" cx="35.17" cy="22.3" rx="4" ry="4"/>
		<ellipse transform="matrix(0.1602 -0.9871 0.9871 0.1602 7.5289 53.4414)" class="st7" cx="35.17" cy="22.3" rx="4" ry="4"/>
		<path class="st8" d="M38.59,22.3c0,1.89-1.53,3.42-3.42,3.42s-3.42-1.53-3.42-3.42c0-1.89,1.53-3.42,3.42-3.42
			S38.59,20.41,38.59,22.3z"/>
		<path class="st9" d="M35.44,22.36c-1.27-0.04-2.45,0.31-3.57,0.83c0.39,1.46,1.72,2.53,3.31,2.53c1.63,0,2.99-1.14,3.34-2.67
			C37.5,22.71,36.49,22.39,35.44,22.36z"/>
		<g>
			<ellipse class="st7" cx="52.7" cy="6.94" rx="3.3" ry="3.22"/>
			<path class="st10" d="M55.08,9.17C55.65,8.59,56,7.8,56,6.94c0-1.01-0.48-1.92-1.23-2.51c-0.47,0.44-1.97,2.29-2.44,2.8
				C52.86,7.61,54.62,8.84,55.08,9.17z"/>
			<path class="st11" d="M44.68,21.69c-0.09,0-0.18-0.06-0.2-0.16c-0.02-0.08-0.5-1.9-0.5-2.54c0-0.64,0.44-1.09,0.54-1.19l7.8-10.7
				c0.07-0.09,0.2-0.11,0.29-0.05c0.09,0.07,0.11,0.2,0.05,0.29l-7.82,10.72c-0.01,0.01-0.02,0.02-0.03,0.03
				c0,0-0.42,0.38-0.42,0.89c0,0.58,0.48,2.41,0.48,2.43c0.03,0.11-0.04,0.23-0.15,0.26C44.71,21.69,44.7,21.69,44.68,21.69z"/>
		</g>
		<g>
			<ellipse class="st7" cx="18.27" cy="6.94" rx="3.3" ry="3.22"/>
			<path class="st10" d="M15.9,9.17c-0.57-0.58-0.92-1.37-0.92-2.23c0-1.01,0.48-1.92,1.23-2.51c0.47,0.44,1.97,2.29,2.44,2.8
				C18.12,7.61,16.36,8.84,15.9,9.17z"/>
			<path class="st11" d="M26.3,21.69c0.09,0,0.18-0.06,0.2-0.16c0.02-0.08,0.5-1.9,0.5-2.54c0-0.64-0.44-1.09-0.54-1.19l-7.8-10.7
				c-0.07-0.09-0.2-0.11-0.29-0.05c-0.09,0.07-0.11,0.2-0.05,0.29l7.82,10.72c0.01,0.01,0.02,0.02,0.03,0.03
				c0,0,0.42,0.38,0.42,0.89c0,0.58-0.48,2.41-0.48,2.43c-0.03,0.11,0.04,0.23,0.15,0.26C26.26,21.69,26.28,21.69,26.3,21.69z"/>
		</g>
	</g>
	<path class="st12" d="M23.66,60.36c1.02,0.46,2.17,0.32,3.41,0.29c1.9-0.04,3.81,0.02,5.71,0.02c3.97,0.01,7.94-0.02,11.91,0.01
		c7.84,0.06,5.85-12.27,4.95-17.71c-0.33-1.97-0.68-3.94-1-5.92c-0.5-3.08-2.75-5.24-4.87-6.84c-1.15-0.87-2.37-1.62-3.71-1.95
		c-2.58-0.65-6.03-1.07-9.21,0c-1.32,0.44-2.56,1.08-3.71,1.95c-2.12,1.6-4.37,3.75-4.87,6.84c-1.01,6.23-3.54,17.36,0,22.14
		C22.69,59.78,23.16,60.14,23.66,60.36z"/>
	<path class="st13" d="M24.19,60.37c0.98,0.45,2.08,0.31,3.26,0.29c1.81-0.04,3.64,0.02,5.45,0.02c3.79,0.01,7.58-0.02,11.37,0.01
		c7.49,0.06,5.58-12.12,4.73-17.49c-0.31-1.95-0.65-3.89-0.96-5.84c-0.47-3.04-2.63-5.17-4.65-6.75c-1.1-0.86-2.26-1.59-3.54-1.93
		c-2.47-0.64-5.76-1.06-8.8,0c-1.26,0.44-2.44,1.07-3.54,1.93c-2.03,1.58-4.18,3.71-4.65,6.75c-0.96,6.15-3.38,17.14,0,21.86
		C23.27,59.79,23.72,60.15,24.19,60.37z"/>
	<path class="st14" d="M21.12,51.83c0.02,2.95,0.47,5.61,1.74,7.38c0.41,0.58,0.86,0.93,1.34,1.15c0.98,0.45,2.08,0.31,3.26,0.29
		c1.81-0.04,3.64,0.02,5.45,0.02c3.79,0.01,7.58-0.02,11.37,0.01c4.45,0.04,5.58-4.25,5.59-8.86H21.12z"/>
	<path class="st15" d="M28.38,60.53c0.62,0.22,1.31,0.16,2.05,0.14c1.14-0.02,2.29,0.01,3.43,0.01c2.39,0.01,4.77-0.01,7.16,0.01
		c4.71,0.03,3.51-6.03,2.98-8.71c-0.2-0.97-0.41-1.94-0.6-2.91c-0.3-1.51-1.65-2.58-2.93-3.36c-0.69-0.43-1.43-0.79-2.23-0.96
		c-1.55-0.32-3.63-0.53-5.54,0c-0.79,0.22-1.54,0.53-2.23,0.96c-1.27,0.78-2.63,1.85-2.93,3.36c-0.6,3.06-2.13,8.53,0,10.88
		C27.8,60.24,28.08,60.42,28.38,60.53z"/>
	<path class="st16" d="M41.96,57.33c0,0-0.14-4.72-1.15-8.93c-0.74-3.08-3.49-3.68-4.9-3.78l0-0.01c0,0-0.16-0.01-0.42-0.01
		c-0.27,0-0.42,0.01-0.42,0.01l0,0.01c-1.41,0.1-4.15,0.69-4.9,3.78c-1.01,4.2-1.15,8.93-1.15,8.93s-0.13,0.87,1.44,0.89
		c0.75,0.01,2.95,0.01,5.04,0.01c2.09,0,4.29,0,5.04-0.01C42.1,58.2,41.96,57.33,41.96,57.33z"/>
	<path class="st17" d="M40.4,45.3c0.07-0.07,0.11-0.14,0.12-0.23c-0.3-0.68-0.73-1.43-1.33-2.22c0,0-0.82-0.91-0.61-3.3
		s0-9.35,0-9.35s0.2-1.94-2.68-2.15v-0.01h-0.79c-3.03,0.16-2.81,2.16-2.81,2.16s-0.21,6.96,0,9.35s-0.61,3.3-0.61,3.3
		c-0.53,0.7-0.93,1.37-1.23,1.99c-0.01,0.05-0.01,0.09-0.01,0.14c0.29,0.49,1.68-0.26,2.05-0.39c0.41-0.14,0.8-0.22,1.2-0.28
		c0.1-0.02,0.21-0.05,0.3-0.06c0.06-0.01,0.12-0.03,0.18-0.04c0.03-0.01,0.04,0,0.06,0c0.52-0.07,0.86-0.05,0.86-0.05l0.21,0
		c0.05,0,0.09-0.01,0.14-0.01c0.02,0,0.04,0,0.06,0.01l0.38,0.01v-0.01c0.12,0.01,0.32,0.02,0.57,0.06
		c0.66,0.06,1.31,0.19,1.94,0.38C38.86,44.75,39.78,45.34,40.4,45.3z"/>
	<g>
		
			<rect x="30.51" y="54.02" transform="matrix(4.547023e-03 -1 1 4.547023e-03 -22.1889 87.2782)" class="st4" width="4.46" height="1.52"/>
		
			<rect x="36" y="54.05" transform="matrix(4.544150e-03 -1 1 4.544150e-03 -16.7479 92.7935)" class="st4" width="4.46" height="1.52"/>
		<path class="st18" d="M32.75,52.55l-0.06,13.25c-0.01,1.23,0.92,2.22,2.07,2.23l1.32,0.01c1.15,0.01,2.09-0.98,2.09-2.21
			l0.06-13.25L32.75,52.55z"/>
	</g>
	<path class="st17" d="M30.51,57.68c0.61-0.42,1.07-1.01,1.54-1.57c0.86-1.02,1.72-1.84,3.15-1.91c1.63-0.07,3.05,0.77,4.19,1.88
		c0.52,0.5,1.03,1.12,1.66,1.5c0.31,0.19,0.62,0.26,0.91,0.26c0.02-0.1,0.01-0.18,0.01-0.18s-0.14-4.84-1.15-9.15
		c-0.74-3.16-3.49-3.77-4.9-3.87l0-0.01c0,0-0.16-0.01-0.42-0.01c-0.27,0-0.42,0.01-0.42,0.01l0,0.01c-1.41,0.1-4.15,0.71-4.9,3.87
		c-1.01,4.31-1.15,9.15-1.15,9.15s0,0.02,0,0.05C29.42,57.97,30.05,58,30.51,57.68z"/>
	<path class="st19" d="M41.96,57.65c0,0-0.14-4.84-1.15-9.15c-0.68-2.88-3.01-3.64-4.49-3.83c3.26,1.81,3.6,8.66,3.83,12.19
		c0.28,0.27,0.56,0.53,0.89,0.72c0.31,0.19,0.62,0.26,0.91,0.26C41.97,57.72,41.96,57.65,41.96,57.65z"/>
	<path class="st13" d="M38.1,41.4c0,1.1-0.89,1.99-1.99,1.99h-1.25c-1.1,0-1.99-0.89-1.99-1.99v-8.65c0-1.1,0.89-1.99,1.99-1.99
		h1.25c1.1,0,1.99,0.89,1.99,1.99V41.4z"/>
	<path class="st20" d="M35.47,45.12c0,0-3.24,0.22-4.54,3.18c0,0-0.33,0.56-0.84,3.11l-0.58,5.6c0,0,0.49-6.33,1.52-8.15
		C32.05,47.04,32.66,46.1,35.47,45.12z"/>
	<path class="st20" d="M30.36,29.77c0,0-5.49,2.33-6.97,7.56c0,0-1.72,7.7-1.92,14.03c0,0-0.14,4.16,1.22,6.21
		c0,0-1.08-3.21-0.75-6.4c0.33-3.19,1.36-12.41,2.16-14.4C24.1,36.77,25.11,32.7,30.36,29.77z"/>
	<path class="st20" d="M40.23,29.67c0,0,5.49,2.33,6.97,7.56c0,0,1.72,7.7,1.92,14.03c0,0,0.14,4.16-1.22,6.21
		c0,0,1.08-3.22,0.75-6.4c-0.33-3.19-1.36-12.41-2.16-14.4C46.5,36.67,45.48,32.6,40.23,29.67z"/>
</g>
<g>
	<path class="st21" d="M70.93,36.78l3.14,3.12c-1.26,1.29-3.03,2.11-4.96,2.11c-2.53,0-4.75-1.37-5.93-3.43
		c-0.43,1.97-2.13,3.24-4.26,3.24h-7.94l0.06-3.52h6.93c0.59,0,0.88-0.26,0.88-0.7c0-0.42-0.29-0.69-0.89-0.69H54.8
		c-2.22,0-4.03-1.51-4.03-4.19c0-3.08,2.11-4.2,4.24-4.2h7.87v3.51h-6.79c-0.51,0-0.87,0.19-0.87,0.67c0,0.49,0.36,0.7,0.87,0.7
		h2.97c1.36,0,2.48,0.43,3.22,1.24c0.25-3.54,3.22-6.33,6.83-6.33c1.95,0,3.7,0.82,4.96,2.11l-3.1,3.13
		c-0.46-0.53-1.12-0.85-1.86-0.85c-1.35,0-2.45,1.1-2.45,2.45c0,1.37,1.1,2.47,2.45,2.47C69.83,37.62,70.49,37.29,70.93,36.78z"/>
	<path class="st21" d="M116.04,33.4h-2.97c-0.51,0-0.87-0.21-0.87-0.7c0-0.48,0.36-0.67,0.87-0.67h6.79v-3.51h-7.87
		c-1.01,0-2.02,0.25-2.79,0.84v-0.84H96.85v2.12c-1.25-1.43-3.1-2.33-5.15-2.33c-2.85,0-5.31,1.74-6.34,4.23
		c-1.03-2.49-3.48-4.23-6.33-4.23c-3.78,0-6.86,3.06-6.86,6.84c0,3.8,3.08,6.86,6.86,6.86c2.85,0,5.3-1.74,6.33-4.24
		c1.03,2.5,3.49,4.24,6.34,4.24c3.78,0,6.86-3.06,6.86-6.86c0-1.12-0.27-2.18-0.76-3.12h3v9.79h4.45v-9.79h2.54
		c-0.03,0.22-0.04,0.45-0.04,0.69c0,2.68,1.81,4.19,4.03,4.19h3.16c0.6,0,0.89,0.27,0.89,0.69c0,0.44-0.29,0.7-0.88,0.7h-6.93
		l-0.06,3.52h7.94c2.47,0,4.37-1.71,4.37-4.24C120.27,34.9,118.58,33.4,116.04,33.4z M79.03,37.62c-1.35,0-2.45-1.1-2.45-2.47
		c0-1.35,1.1-2.45,2.45-2.45c1.34,0,2.45,1.1,2.45,2.45C81.48,36.52,80.37,37.62,79.03,37.62z M91.7,37.62
		c-1.35,0-2.45-1.1-2.45-2.47c0-1.35,1.1-2.45,2.45-2.45c1.35,0,2.45,1.1,2.45,2.45C94.15,36.52,93.05,37.62,91.7,37.62z"/>
</g>
<g>
	<g>
		<path class="st2" d="M57.57,49.46v-6.24h0.88v6.24H57.57z M59.24,46.91l-0.68-2.58h-0.25v-1.11h0.62l0.68,2.68h0.04l0.09,1.01
			H59.24z M59.5,46.91l0.13-1.01h0.05l0.68-2.68h0.62v1.11h-0.25l-0.68,2.58H59.5z M60.84,49.46v-6.24h0.88v6.24H60.84z"/>
		<path class="st2" d="M64.3,49.55c-0.64,0-1.15-0.21-1.5-0.63s-0.54-1.02-0.54-1.78c0-0.77,0.18-1.37,0.54-1.79s0.86-0.63,1.5-0.63
			c0.65,0,1.15,0.21,1.5,0.63c0.36,0.42,0.53,1.02,0.53,1.79c0,0.77-0.18,1.36-0.53,1.78C65.45,49.33,64.95,49.55,64.3,49.55z
			 M64.3,48.71c0.34,0,0.61-0.14,0.79-0.41c0.19-0.28,0.28-0.67,0.28-1.17c0-0.51-0.09-0.9-0.28-1.17
			c-0.19-0.27-0.45-0.41-0.79-0.41s-0.61,0.14-0.79,0.41c-0.19,0.27-0.28,0.66-0.28,1.17c0,0.5,0.09,0.89,0.28,1.17
			C63.69,48.57,63.96,48.71,64.3,48.71z"/>
		<path class="st2" d="M66.62,45.62V44.8h4.22v0.82H66.62z M67.79,47.26v-3.87h0.93v3.87H67.79z M69.79,49.55
			c-0.71,0-1.22-0.15-1.53-0.44c-0.32-0.29-0.47-0.76-0.47-1.41v-0.79h0.93v0.75c0,0.37,0.09,0.64,0.27,0.8
			c0.18,0.17,0.48,0.25,0.89,0.25c0.15,0,0.3-0.01,0.47-0.02c0.16-0.02,0.35-0.04,0.56-0.06l0.11,0.82
			c-0.21,0.04-0.41,0.06-0.6,0.08C70.22,49.54,70.01,49.55,69.79,49.55z"/>
		<path class="st2" d="M73.6,49.55c-0.64,0-1.15-0.21-1.5-0.63s-0.54-1.02-0.54-1.78c0-0.77,0.18-1.37,0.54-1.79s0.86-0.63,1.5-0.63
			c0.65,0,1.15,0.21,1.5,0.63c0.36,0.42,0.53,1.02,0.53,1.79c0,0.77-0.18,1.36-0.53,1.78C74.75,49.33,74.25,49.55,73.6,49.55z
			 M73.6,48.71c0.34,0,0.61-0.14,0.79-0.41c0.19-0.28,0.28-0.67,0.28-1.17c0-0.51-0.09-0.9-0.28-1.17
			c-0.19-0.27-0.45-0.41-0.79-0.41s-0.61,0.14-0.79,0.41c-0.19,0.27-0.28,0.66-0.28,1.17c0,0.5,0.09,0.89,0.28,1.17
			C73,48.57,73.26,48.71,73.6,48.71z"/>
		<path class="st2" d="M75.97,49.46v-0.82h3.11v0.82H75.97z M76.15,45.62V44.8h1.56l0.09,0.82H76.15z M77.01,49.46V44.8h0.76
			l0.18,1.34v3.32H77.01z M77.94,47.45L77.67,46h0.36c0.05-0.86,0.48-1.28,1.28-1.28c0.48,0,0.83,0.14,1.05,0.41
			s0.33,0.72,0.33,1.34h-0.92c0-0.34-0.05-0.58-0.15-0.73c-0.1-0.15-0.26-0.22-0.49-0.22c-0.4,0-0.69,0.17-0.89,0.51
			C78.04,46.35,77.94,46.83,77.94,47.45z"/>
		<path class="st2" d="M85.54,49.46v-6.24h0.91v6.24H85.54z M86.39,47.08v-0.83h1.29c0.35,0,0.62-0.09,0.82-0.28
			c0.19-0.18,0.29-0.44,0.29-0.78c0-0.37-0.1-0.65-0.29-0.85c-0.2-0.2-0.47-0.3-0.82-0.3h-1.27l-0.11-0.83h1.38
			c0.65,0,1.15,0.16,1.5,0.49c0.35,0.33,0.53,0.79,0.53,1.4c0,0.63-0.18,1.11-0.53,1.46c-0.35,0.35-0.85,0.52-1.5,0.52H86.39z
			 M88.89,49.46l-1.4-2.94h0.97l1.49,2.94H88.89z"/>
		<path class="st2" d="M92.62,49.55c-0.79,0-1.41-0.21-1.84-0.63c-0.43-0.42-0.65-1.02-0.65-1.8c0-0.76,0.18-1.35,0.55-1.78
			c0.37-0.42,0.88-0.63,1.55-0.63c0.63,0,1.12,0.19,1.46,0.57c0.34,0.38,0.52,0.93,0.52,1.66c0,0.21-0.01,0.41-0.03,0.6h-3.27v-0.71
			h2.45c0-0.42-0.1-0.74-0.3-0.96c-0.2-0.22-0.47-0.34-0.83-0.34c-0.4,0-0.7,0.13-0.92,0.4c-0.22,0.27-0.33,0.65-0.33,1.14
			c0,0.54,0.15,0.95,0.45,1.23c0.3,0.28,0.73,0.42,1.28,0.42c0.19,0,0.38-0.01,0.57-0.03c0.19-0.02,0.38-0.05,0.57-0.09l0.11,0.82
			c-0.28,0.05-0.53,0.09-0.76,0.1C93,49.54,92.79,49.55,92.62,49.55z"/>
		<path class="st2" d="M94.97,49.46V44.8h0.84l0.09,0.98v3.67H94.97z M97.83,49.46v-3.03c0-0.28-0.07-0.5-0.22-0.65
			s-0.35-0.23-0.62-0.23c-0.73,0-1.1,0.43-1.1,1.29l-0.27-1.2h0.36c0.03-0.31,0.14-0.55,0.34-0.7c0.2-0.15,0.5-0.23,0.89-0.23
			c0.49,0,0.87,0.15,1.14,0.45s0.4,0.72,0.4,1.27v3.03H97.83z"/>
		<path class="st2" d="M99.19,45.62V44.8h4.22v0.82H99.19z M100.36,47.26v-3.87h0.93v3.87H100.36z M102.36,49.55
			c-0.71,0-1.22-0.15-1.53-0.44c-0.32-0.29-0.47-0.76-0.47-1.41v-0.79h0.93v0.75c0,0.37,0.09,0.64,0.27,0.8
			c0.18,0.17,0.48,0.25,0.89,0.25c0.15,0,0.3-0.01,0.47-0.02c0.16-0.02,0.35-0.04,0.56-0.06l0.11,0.82
			c-0.21,0.04-0.41,0.06-0.6,0.08C102.79,49.54,102.58,49.55,102.36,49.55z"/>
		<path class="st2" d="M105.49,49.55c-0.49,0-0.86-0.12-1.13-0.35c-0.27-0.23-0.4-0.57-0.4-0.99c0-0.49,0.18-0.87,0.55-1.13
			c0.37-0.26,0.89-0.4,1.56-0.4c0.28,0,0.53,0.02,0.75,0.05c0.22,0.03,0.41,0.08,0.58,0.15l-0.19,0.63
			c-0.2-0.04-0.39-0.07-0.58-0.08c-0.19-0.01-0.38-0.01-0.58-0.01c-0.81,0-1.21,0.25-1.21,0.74c0,0.21,0.07,0.36,0.21,0.47
			c0.14,0.11,0.34,0.17,0.59,0.17c0.29,0,0.53-0.05,0.73-0.15c0.19-0.1,0.34-0.23,0.44-0.38c0.1-0.16,0.14-0.32,0.14-0.48v-0.51
			l0.27,1.2h-0.37l0.15-0.14c0,0.27-0.06,0.49-0.19,0.67c-0.12,0.18-0.3,0.31-0.53,0.4C106.06,49.5,105.79,49.55,105.49,49.55z
			 M107.13,49.5l-0.06-1.38l-0.12-0.39v-1.2c0-0.31-0.11-0.54-0.33-0.68c-0.22-0.14-0.54-0.22-0.97-0.23l-1.12-0.03l0.09-0.83
			l0.94,0.01c0.77,0.01,1.34,0.18,1.72,0.5c0.37,0.32,0.56,0.79,0.56,1.4v1.94l0.79,0.1v0.75L107.13,49.5z"/>
		<path class="st2" d="M108.62,43.68v-0.82h1.45v0.82H108.62z M111.52,49.55c-0.54,0-0.93-0.15-1.17-0.44s-0.36-0.76-0.36-1.41
			v-4.83h0.93v4.79c0,0.25,0.02,0.45,0.07,0.6c0.05,0.16,0.14,0.27,0.27,0.34c0.14,0.07,0.34,0.11,0.6,0.11
			c0.24,0,0.55-0.06,0.93-0.17l0.11,0.82c-0.24,0.06-0.46,0.11-0.68,0.14C112,49.53,111.77,49.55,111.52,49.55z"/>
	</g>
</g>
</svg>
