<?xml version="1.0" encoding="UTF-8"?>
<svg id="Capa_1" data-name="Capa 1" xmlns="http://www.w3.org/2000/svg" viewBox="0 0 28.85 23.19">
  <defs>
    <style>
      .cls-1 {
        fill: #c2e3f7;
      }

      .cls-1, .cls-2 {
        stroke-width: 0px;
      }

      .cls-2 {
        fill: #0b93e2;
      }
    </style>
  </defs>
  <g id="_721_Cloud_Cloudy_Weather" data-name="721, Cloud, Cloudy, Weather">
    <g>
      <path class="cls-1" d="M3.98,9.41v-.05c0-1.81,1.54-3.33,3.41-3.33.48,0,.96.1,1.39.29.82-1.62,2.59-2.76,4.56-2.76,1.78,0,3.36.9,4.27,2.23-1.44.38-2.64,1.33-3.31,2.61-.43-.19-.91-.28-1.39-.28-1.87,0-3.41,1.47-3.41,3.33v.09c-1.92.38-3.41,2.04-3.41,4.04,0,.76.19,1.47.53,2.09h-3.02c-1.78-.48-3.02-2.28-3.02-4.18,0-2,1.44-3.66,3.41-4.09t0,0Z"/>
      <path class="cls-1" d="M24.91,19.63v.1c-.05,1.62-1.39,2.9-2.98,2.9h-8.4c-1.58,0-2.93-1.24-2.98-2.8v-.19c0-1.66,1.34-2.95,3.02-2.95h.19c.53-1.71,2.11-2.99,4.03-2.99s3.5,1.24,4.03,2.99h.19c1.54-.05,2.88,1.28,2.88,2.95Z"/>
      <path class="cls-1" d="M24,11.45h-.1c.05-.29.1-.52.1-.81,0-2.76-2.3-4.94-5.09-4.94-.43,0-.86.05-1.25.14-1.44.38-2.64,1.33-3.31,2.61-.43-.19-.91-.29-1.39-.29-1.87,0-3.41,1.47-3.41,3.33v.1c-1.92.38-3.41,2.04-3.41,4.04,0,.76.19,1.47.53,2.09.53,1,1.39,1.81,2.5,2.09h1.44v-.19c0-1.66,1.34-2.95,3.02-2.95h.19c.53-1.71,2.11-2.99,4.03-2.99s3.5,1.24,4.03,2.99h.19c1.68,0,3.02,1.33,3.02,2.95v.1c1.92-.38,3.31-2.09,3.31-4.09-.19-2.33-2.06-4.18-4.42-4.18Z"/>
      <path class="cls-2" d="M25.97,4.33c.1.09.19.24.19.43,0,.14-.05.33-.19.43-.1.1-.24.19-.43.19-.34,0-.62-.29-.62-.62,0-.14.05-.33.19-.43.1-.1.24-.19.43-.19.14.05.34.1.43.19Z"/>
      <path class="cls-2" d="M22.37,12.07c.1.1.19.24.19.43s-.05.33-.19.43c-.1.1-.24.19-.43.19-.34,0-.62-.29-.62-.62,0-.14.05-.33.19-.43.1-.1.24-.19.43-.19.14,0,.34.09.43.19Z"/>
      <path class="cls-2" d="M19.34,2.57c.1.1.19.24.19.43s-.05.33-.19.43c-.1.1-.24.19-.43.19-.34,0-.62-.29-.62-.57,0-.14.05-.33.19-.43.1-.1.24-.19.43-.19s.34.05.43.14Z"/>
      <path class="cls-2" d="M14.54.19c.1.1.19.24.19.43,0,.14-.05.33-.19.43-.1.1-.24.19-.43.19-.34,0-.62-.29-.62-.62,0-.14.05-.33.19-.43.1-.1.24-.19.43-.19s.34.09.43.19Z"/>
      <path class="cls-2" d="M5.57,2.57c.1.1.19.24.19.43s-.05.33-.19.43c-.1.1-.24.19-.43.19-.34,0-.62-.29-.62-.57,0-.14.05-.33.19-.43.1-.1.24-.19.43-.19s.34.05.43.14Z"/>
      <path class="cls-2" d="M2.54,6.13c.1.1.19.24.19.43,0,.14-.05.33-.19.43-.1.1-.24.19-.43.19-.34,0-.62-.29-.62-.62,0-.14.05-.33.19-.43.1-.1.24-.19.43-.19s.34.09.43.19Z"/>
      <path class="cls-2" d="M21.94,11.12c-.34,0-.58-.24-.58-.57-.05-1.95-1.68-2.33-1.73-2.38-.34-.09-.53-.38-.43-.71.1-.33.38-.52.72-.43.91.19,2.59,1.19,2.69,3.47-.05.33-.34.62-.67.62h0Z"/>
      <path class="cls-2" d="M6.62,18.3h-3.17c-2.02-.57-3.46-2.57-3.46-4.75s1.39-3.9,3.41-4.52c.19-1.95,1.92-3.52,3.98-3.52.38,0,.77.05,1.1.14,1.06-1.62,2.83-2.61,4.85-2.61s3.7.95,4.75,2.47c.05.09.1.24.1.33,0,.33-.29.62-.62.62-.14,0-.29-.05-.43-.14t-.1-.09c-.82-1.24-2.26-2-3.79-2-1.73,0-3.26.95-4.03,2.42-.14.29-.48.38-.77.29-.38-.14-.72-.24-1.15-.24-1.54,0-2.78,1.24-2.78,2.71v.1c0,.29-.19.52-.48.57-1.68.33-2.93,1.81-2.93,3.47s1.06,3.18,2.5,3.61h2.98c.34,0,.62.28.62.62s-.24.52-.58.52Z"/>
      <path class="cls-2" d="M15.41,7.32c-.19,0-.38-.1-.48-.29-.53-.76-1.3-.95-1.34-.95-.34-.09-.53-.38-.43-.71.1-.33.38-.52.72-.43.05,0,1.25.29,2.06,1.43.19.29.1.62-.14.81-.14.09-.29.14-.38.14Z"/>
      <path class="cls-2" d="M10.56,20.39h-1.58c-1.2-.33-2.26-1.19-2.88-2.38-.38-.76-.58-1.57-.58-2.38,0-2.09,1.39-3.9,3.41-4.52.19-1.95,1.92-3.52,3.98-3.52.38,0,.77.05,1.1.14.77-1.24,2.02-2.09,3.46-2.47.48-.1.91-.19,1.39-.19,3.17,0,5.71,2.47,5.71,5.56v.29c2.4.29,4.27,2.28,4.27,4.71,0,2.28-1.58,4.23-3.79,4.71-.34.05-.62-.14-.72-.48-.05-.33.14-.62.48-.71,1.63-.33,2.83-1.81,2.83-3.52,0-1.95-1.63-3.56-3.65-3.56h-.05c-.19,0-.34-.1-.48-.19-.1-.14-.14-.33-.14-.48.05-.24.05-.48.05-.71,0-2.42-2.02-4.37-4.51-4.37-.38,0-.77.05-1.1.14-1.3.33-2.35,1.14-2.93,2.28-.14.29-.48.38-.77.29-.34-.14-.72-.24-1.15-.24-1.54,0-2.78,1.24-2.78,2.71v.1c0,.29-.19.52-.48.62-1.68.33-2.93,1.81-2.93,3.47,0,.62.14,1.28.43,1.85.43.86,1.2,1.52,2.06,1.76h1.34c.34,0,.62.28.62.62-.05.19-.34.48-.62.48Z"/>
      <path class="cls-2" d="M21.94,23.19h-8.4c-1.92,0-3.5-1.47-3.6-3.37v-.19c0-1.9,1.49-3.42,3.36-3.56.34-.81.86-1.47,1.54-2,.82-.62,1.82-.95,2.88-.95s2.06.33,2.88.95c.67.52,1.25,1.24,1.54,2,1.87.14,3.36,1.66,3.36,3.56v.1c-.05.95-.43,1.81-1.1,2.42-.62.67-1.49,1.05-2.45,1.05ZM13.54,17.25c-1.34,0-2.4,1.05-2.4,2.38v.14c.1,1.24,1.1,2.23,2.4,2.23h8.4c1.3,0,2.35-1,2.4-2.33h0v-.05c0-1.33-1.06-2.38-2.4-2.38h-.14c-.29,0-.53-.14-.62-.43-.43-1.52-1.87-2.57-3.46-2.57s-3.02,1.05-3.46,2.57c-.1.29-.34.43-.62.43h-.1Z"/>
      <path class="cls-2" d="M19.63,18.01c-.24,0-.48-.19-.58-.43-.19-.57-.72-.95-1.3-.95-.34,0-.62-.29-.62-.62s.29-.62.62-.62c1.1,0,2.11.76,2.45,1.81.1.33-.1.67-.38.76-.1.05-.14.05-.19.05Z"/>
    </g>
  </g>
</svg>