<?xml version="1.0" encoding="UTF-8"?>
<svg id="Capa_1" data-name="Capa 1" xmlns="http://www.w3.org/2000/svg" viewBox="0 0 37.9 37.9">
  <defs>
    <style>
      .cls-1 {
        fill: #f97300;
      }

      .cls-1, .cls-2 {
        stroke-width: 0px;
      }

      .cls-2 {
        fill: #0e3047;
        fill-rule: evenodd;
      }
    </style>
  </defs>
  <rect class="cls-1" width="37.9" height="37.9" rx="3.16" ry="3.16"/>
  <path class="cls-2" d="M21.92,11.83c.67-.02,1.33,0,2,0h.27v-3.46c-.36-.04-.73-.09-1.1-.1-.68-.03-1.37-.06-2.05-.05-1.04.02-2.03.28-2.89.89-.99.71-1.53,1.71-1.74,2.89-.09.49-.11.99-.12,1.49-.02.78,0,1.55,0,2.33v.29h-3.31v3.87h3.29v9.72h4.03v-9.71h3.28c.17-1.29.33-2.56.51-3.89-.26,0-.5,0-.74,0-.93,0-3.08,0-3.08,0,0,0,0-1.92.03-2.75.03-1.14.71-1.49,1.62-1.52Z"/>
</svg>