<?xml version="1.0" encoding="UTF-8"?>
<svg id="Capa_1" data-name="Capa 1" xmlns="http://www.w3.org/2000/svg" viewBox="0 0 37.9 37.9">
  <defs>
    <style>
      .cls-1 {
        fill: #f97300;
      }

      .cls-1, .cls-2 {
        stroke-width: 0px;
      }

      .cls-2 {
        fill: #0e3047;
      }
    </style>
  </defs>
  <rect class="cls-1" width="37.9" height="37.9" rx="3.16" ry="3.16"/>
  <g>
    <path class="cls-2" d="M8.26,14.31h4.56v14.66h-4.56v-14.66ZM10.55,7.03c1.46,0,2.64,1.18,2.64,2.64s-1.18,2.64-2.64,2.64-2.65-1.19-2.65-2.64,1.18-2.64,2.65-2.64"/>
    <path class="cls-2" d="M15.69,14.31h4.37v2.01h.06c.61-1.15,2.1-2.37,4.32-2.37,4.61,0,5.47,3.03,5.47,6.98v8.04h-4.55v-7.13c0-1.7-.03-3.89-2.37-3.89s-2.73,1.85-2.73,3.76v7.25h-4.56v-14.66Z"/>
  </g>
</svg>