<?xml version="1.0" encoding="UTF-8"?>
<svg id="Capa_1" data-name="Capa 1" xmlns="http://www.w3.org/2000/svg" viewBox="0 0 106.29 63.65">
  <defs>
    <style>
      .cls-1 {
        fill: #f97300;
        stroke-width: 0px;
      }

      .cls-2 {
        fill: none;
        stroke: #f8fce4;
        stroke-linecap: round;
        stroke-linejoin: round;
        stroke-width: 1.29px;
      }
    </style>
  </defs>
  <path class="cls-1" d="M69,28.03c-.17,1.65-.6,3.24-1.24,4.7-.03.02-.06.04-.09.07l-2.45,1.96c-.07.05-.14.07-.19.07-.06,0-.16-.01-.24-.11l-9.05-11.2c-.63-.78-1.56-1.23-2.56-1.23-1.16,0-2.21.59-2.82,1.58l-1.78,2.93s-.04.06-.08.09l-6.19,5.42c-.16.14-.28.28-.37.39l-.04.04-1.96,2.56c-1.72-2.55-2.72-5.61-2.72-8.91,0-.37.01-.74.04-1.1h11.14l-3.27-.94s.67-1.03-.54-1.47c-1.21-.44-3.75,1.32-3.75,1.32,0,0,.73-1.9-.91-1.84-.79.03-1.71.63-2.46,1.24,1.32-7.47,7.84-13.14,15.69-13.14,4.6,0,8.75,1.95,11.66,5.07-1.34.31-2.66,1.03-2.76,1.09.07-.1,1.04-1.39-.33-1.9-1.34-.5-5.2,2.08-5.63,2.37.25-.19,1.64-1.29-.11-1.45-1.91-.18-6.56,2.96-6.56,2.96h17.63c1.04,1.85,1.73,3.93,1.95,6.15-1.39.42-3.06,1.71-3.18,1.8.05-.09.67-1.16-.46-1.05-1.18.11-4.11,2.12-4.11,2.12l-1.49.43h9.25Z"/>
  <path class="cls-2" d="M104.17,49.65c0,.73-.02,1.45-.05,2.17,0-28.25-23.56-48.53-50.97-48.53S2.17,23.5,2.17,51.82c-.03-.72-.05-1.44-.05-2.17C2.12,22.59,24.96.64,53.15.64s51.02,21.95,51.02,49.01Z"/>
  <path class="cls-2" d="M104.96,59.79l-15.8-12.64c-.2-.16-.44-.27-.69-.34l-6.32-1.6c-.33-.08-.62-.25-.85-.49l-10.29-10.6c-.65-.66-1.69-.73-2.42-.15l-2.46,1.96c-.77.61-1.9.49-2.52-.28l-9.05-11.2c-.78-.97-2.29-.87-2.94.19l-1.79,2.95c-.1.16-.22.3-.36.42l-6.19,5.42c-.09.08-.17.17-.25.26l-5.47,7.15c-.78,1.02-2.36.91-3-.21l-1.65-2.94c-.57-.99-1.9-1.22-2.76-.47l-2.49,2.19c-.33.28-.75.44-1.19.44h-1.14c-.61,0-1.18.31-1.52.83l-3.44,5.35c-.29.45-.77.75-1.3.81l-3.38.42c-.37.04-.72.2-.99.45L1.24,59.86c-1.22,1.11-.44,3.14,1.21,3.14h101.39c1.71,0,2.46-2.14,1.13-3.21ZM18.77,48.23l-5.38,6.15s-.04.04-.06.05c0,0-10.05,6.23-10.88,6.31-1.17.1,10.12-7.38,10.12-7.38.02-.01.04-.03.05-.05l3.66-5.15s.09-.08.15-.08l2.16-.2c.19-.02.31.2.18.35ZM34.36,44.84l-7.68,10.36.64-2.84c.08-.34-.26-.63-.59-.5l-7.14,2.93c-.46.19-.82-.41-.44-.73l7.87-6.47s.09-.09.11-.15l3.72-7.85c.15-.31.59-.33.77-.03l2.77,4.8c.08.15.07.33-.03.47ZM47.41,53.2s-.08.07-.12.11c-.06.06-.12.12-.18.17-.08.08-5.49,5.14-5.56,5.19-.02,0-.06,0-.06-.05.02-.07,3.82-4.89,3.83-4.9.14-.19.35-.31.58-.35.1-.01.73-.11.94-.15.19-.03.37-.05.56-.08.02,0,.04-.02.06.01-.02.02-.03.03-.05.05ZM57.15,43.88s-.08.08-.12.11l-.18.18c-.08.07-5.49,5.13-5.57,5.18-.01.01-.06,0-.05-.05.02-.07,3.81-4.88,3.83-4.9.14-.19.35-.31.58-.34.1-.02.73-.12.94-.15.18-.03.37-.06.55-.09.02,0,.05-.02.06,0-.01.02-.03.03-.04.05ZM57.9,42.74l-3.05.45c-.09.01-.17.05-.24.11l-6.9,6.33c-.36.33-.91-.05-.74-.5l3.64-9.55c.16-.42-.31-.79-.68-.55l-1.1.73c-.41.28-.91-.22-.63-.63l3.69-5.63c.04-.06.06-.13.07-.2l.73-6.4c.05-.44.62-.56.85-.19l3.56,5.9s.04.05.06.07l5.3,5.84c.17.19.15.5-.06.66l-4.28,3.48c-.06.05-.14.08-.22.09ZM88.84,54.57l-14.02-5.71c-.09-.04-.19-.01-.25.07l-3.25,4.3s-.09.08-.15.08l-10.54.67c-.21.01-.31-.25-.15-.38l4.05-3.22c.06-.05.09-.13.07-.2l-.87-4.57c-.03-.13-.17-.21-.29-.16l-4.38,1.78c-.21.08-.39-.19-.22-.35l7.01-6.43s.04-.05.05-.07l.99-2.32s.03-.06.06-.08l2.82-2.34c.09-.07.22-.06.29.03l9.5,11.52.03.03,9.46,6.98c.2.15.02.46-.21.36ZM91.3,53.71c-.19.12-.86-.62-1.16-.89-.39-.34-.78-.68-1.16-1.03-.44-.38-.87-.76-1.31-1.14-.44-.39-.89-.78-1.33-1.17-.41-.36-.82-.73-1.24-1.09-.34-.3-.68-.6-1.02-.9-.24-.21-.47-.41-.7-.62-.09-.07-.18-.15-.26-.23-.18-.15-.03-.43.19-.37l4.68,1.17s.06.02.09.04c.4.32.79.63,1.18.94.28.22.56.44.84.66.12.1.24.19.36.29.05.04.12.08.15.13.03.1-.07.16-.15.15-.39-.03-.78-.12-1.17-.18-.22-.04-.44-.08-.66-.11.04.06.08.12.12.17.24.38.47.76.71,1.14.34.53.68,1.06,1.02,1.6.16.25.92,1.37.82,1.44Z"/>
  <g>
    <line class="cls-2" x1="71.76" y1="31.54" x2="80.23" y2="31.54"/>
    <line class="cls-2" x1="83.61" y1="31.54" x2="92.08" y2="31.54"/>
    <line class="cls-2" x1="72.53" y1="27.6" x2="85.56" y2="27.6"/>
    <line class="cls-2" x1="72.53" y1="23.78" x2="78.01" y2="23.78"/>
    <line class="cls-2" x1="81.18" y1="23.78" x2="83.61" y2="23.78"/>
    <line class="cls-2" x1="75.52" y1="19.95" x2="80.51" y2="19.95"/>
    <line class="cls-2" x1="71" y1="19.95" x2="73.23" y2="19.95"/>
    <line class="cls-2" x1="90.99" y1="39.66" x2="97.32" y2="39.66"/>
    <line class="cls-2" x1="82.39" y1="39.66" x2="86.37" y2="39.66"/>
    <line class="cls-2" x1="79.05" y1="35.6" x2="94.16" y2="35.6"/>
  </g>
  <g>
    <line class="cls-2" x1="35.57" y1="31.54" x2="27.1" y2="31.54"/>
    <line class="cls-2" x1="23.72" y1="31.54" x2="15.25" y2="31.54"/>
    <line class="cls-2" x1="34.8" y1="27.6" x2="21.77" y2="27.6"/>
    <line class="cls-2" x1="34.8" y1="23.78" x2="29.32" y2="23.78"/>
    <line class="cls-2" x1="26.15" y1="23.78" x2="23.72" y2="23.78"/>
    <line class="cls-2" x1="31.82" y1="19.95" x2="26.82" y2="19.95"/>
    <line class="cls-2" x1="36.33" y1="19.95" x2="34.11" y2="19.95"/>
    <line class="cls-2" x1="16.34" y1="39.66" x2="10.01" y2="39.66"/>
    <line class="cls-2" x1="22.95" y1="39.66" x2="18.98" y2="39.66"/>
    <line class="cls-2" x1="28.29" y1="35.6" x2="13.17" y2="35.6"/>
    <line class="cls-2" x1="36.57" y1="35.6" x2="33.94" y2="35.6"/>
  </g>
</svg>